<?xml version="1.0" encoding="UTF-8"?>
<!DOCTYPE svg PUBLIC "-//W3C//DTD SVG 1.1//EN" "http://www.w3.org/Graphics/SVG/1.1/DTD/svg11.dtd">
<!-- Creator: CorelDRAW 2019 (64-Bit) -->
<svg xmlns="http://www.w3.org/2000/svg" xml:space="preserve" width="112.596mm" height="54.4696mm" version="1.1" style="shape-rendering:geometricPrecision; text-rendering:geometricPrecision; image-rendering:optimizeQuality; fill-rule:evenodd; clip-rule:evenodd"
viewBox="0 0 11736.43 5677.61"
 xmlns:xlink="http://www.w3.org/1999/xlink">
 <defs>
  <style type="text/css">
   <![CDATA[
    .fil0 {fill:#181A1F}
    .fil2 {fill:url(#id0)}
    .fil1 {fill:url(#id1)}
   ]]>
  </style>
  <linearGradient id="id0" gradientUnits="objectBoundingBox" x1="100%" y1="50%" x2="4.44089e-14%" y2="50%">
   <stop offset="0" style="stop-opacity:1; stop-color:#6000FF"/>
   <stop offset="0.65098" style="stop-opacity:1; stop-color:#4900C3"/>
   <stop offset="1" style="stop-opacity:1; stop-color:#320086"/>
  </linearGradient>
  <linearGradient id="id1" gradientUnits="userSpaceOnUse" x1="2998.71" y1="6475.81" x2="-1034.11" y2="2443.99">
   <stop offset="0" style="stop-opacity:1; stop-color:#AE60FF"/>
   <stop offset="0.321569" style="stop-opacity:1; stop-color:#AF50FF"/>
   <stop offset="1" style="stop-opacity:1; stop-color:#6000FF"/>
  </linearGradient>
 </defs>
 <g id="Layer_x0020_1">
  <metadata id="CorelCorpID_0Corel-Layer"/>
  <g id="_2583662002320">
   <path class="fil0" d="M5283.98 2819.45l-124.82 -236.82 -564.61 0 -124.79 236.82 -278.97 0c189.97,-352.85 379.91,-705.73 570.08,-1058.49l237.65 0 571.59 1058.49 -286.13 0zm-407.21 -771l-169.4 319.49 337.73 0 -168.33 -319.49zm835.62 771l0 -1058.49 256.76 0 452.51 633 448.44 -633 255.33 0 0 1058.49 -247.33 0 0 -680.19 -357.12 511.45 -202.63 0 -358.67 -505.62 0 674.37 -247.3 0zm2481.14 0l-754.73 0 0 -1058.49 733.47 0c109.13,0 198.17,26.04 260.58,74.12 64.39,49.62 99.91,121.37 99.91,211.2 0,59.31 -17.14,114.3 -51.4,160 -17.71,23.62 -39.91,44.55 -66.58,62.08 39.59,18.63 72.46,42.88 98.08,72.07 41.81,47.62 63.86,107.5 63.86,176.69 0,95.59 -36.08,172.14 -104.67,224.92 -65.21,50.15 -159.17,77.41 -278.51,77.41zm50.53 -821.93c-23.13,-18.16 -59.29,-27.54 -107.25,-27.54l-442.19 0 0 209.35 443.61 0c44.17,0 80.03,-10.51 103.88,-30.19 21.26,-17.54 33.41,-43.7 33.41,-77.33 0,-33.17 -10.84,-58.11 -31.46,-74.3zm30.95 423.21c-26.52,-20.53 -67.37,-30.98 -119.76,-30.98l-460.63 0 0 220.7 464.88 0c54.02,0 92.98,-10.01 117.65,-28.79 22.71,-17.29 33.82,-43.99 33.82,-78.72 0,-36.73 -12.71,-64.2 -35.96,-82.21zm541.32 398.72l0 -1058.49 260.08 0 0 1058.49 -260.08 0zm573.44 0l0 -1058.49 686.67 0c123.99,0 221.07,31.73 288.25,89.69 69.82,60.24 106.27,147.28 106.27,255.2 0,97.71 -32.63,178.5 -94.21,237.06 -47.31,45.01 -111.31,76.15 -190.22,90.94l358.05 385.59 -332.13 0 -336.11 -364.46 -226.49 0 0 364.46 -260.07 0zm782.51 -808.26c-27.39,-22.55 -70.38,-34.12 -128.46,-34.12l-393.99 0 0 261.82 393.99 0c57.02,0 100.12,-11.74 127.95,-34.43 25.67,-20.93 39.12,-53.09 39.12,-95.77 0,-43.76 -13.01,-76.46 -38.61,-97.5zm551.06 808.26l0 -1058.49 1013.11 0 0 216.12 -757.28 0 0 195.16 667.95 0 0 214.68 -667.95 0 0 216.44 757.28 0 0 216.09 -1013.11 0z"/>
   <path class="fil0" d="M5134.45 3927l-164.65 0 -88.94 -168.78 -402.38 0 -88.92 168.78 -198.76 0c135.35,-251.47 270.69,-502.94 406.25,-754.28l169.31 0 407.3 754.28 -39.2 0zm-454.84 -549.48l-120.76 227.75 240.73 0 -119.97 -227.75zm1023.16 549.48l-427.66 0 0 -754.28 427.66 0c134.61,0 240.02,35.09 312.61,98.94 74.76,65.76 114.05,161.07 114.05,279.22 0,117.95 -39.2,212.63 -113.86,277.92 -72.63,63.53 -178.13,98.2 -312.81,98.2zm-242.37 -157l247.42 0c77.48,0 135.44,-19.62 173.68,-55.89 38.96,-36.96 58.59,-92.49 58.59,-163.23 0,-71.34 -19.64,-127.38 -58.65,-164.71 -38.21,-36.64 -96.14,-56.44 -173.61,-56.44l-247.42 0 0 440.28zm1538.32 157l-698.51 0 0 -754.28 714.86 0 0 153.96 -532.6 0 0 139.13 476 0 0 152.94 -476 0 0 154.28 539.66 0 0 153.96 -23.42 0zm503.89 -260.55l-221.96 260.55 -226.6 0 333.35 -384.98 -328.26 -369.3 234.47 0 219.72 251.53 215.86 -251.53 227.25 0 -329.91 374.13 337.07 380.15 -233.26 0 -227.74 -260.55z"/>
  </g>
  <g id="_2583662001808">
   <polygon class="fil1" points="-0,3933.03 1094.24,2838.78 0.04,1744.58 649.56,1095.07 1744.58,2190.12 2839.69,1095.07 3489.21,1744.58 2394.96,2838.83 3489.17,3933.03 2838.83,4583.37 1744.62,3489.17 650.38,4583.41 "/>
   <polygon class="fil2" points="723.2,1021.43 1744.62,0 2766.05,1021.43 2218.05,1569.43 1744.62,1096 1271.2,1569.43 "/>
   <polygon class="fil2" points="723.2,4656.19 1744.62,5677.61 2766.05,4656.19 2218.05,4108.18 1744.62,4581.61 1271.2,4108.18 "/>
  </g>
 </g>
</svg>
