<?xml version="1.0" encoding="UTF-8"?>
<!DOCTYPE svg PUBLIC "-//W3C//DTD SVG 1.1//EN" "http://www.w3.org/Graphics/SVG/1.1/DTD/svg11.dtd">
<!-- Creator: CorelDRAW 2019 (64-Bit) -->
<svg xmlns="http://www.w3.org/2000/svg" xml:space="preserve" width="133.283mm" height="61.064mm" version="1.1" shape-rendering="geometricPrecision" text-rendering="geometricPrecision" image-rendering="optimizeQuality" fill-rule="evenodd" clip-rule="evenodd"
viewBox="0 0 13314.02 6099.87"
 xmlns:xlink="http://www.w3.org/1999/xlink">
 <g id="Layer_x0020_1">
  <metadata id="CorelCorpID_0Corel-Layer"/>
  <g id="_2258294157232">
   <g>
    <path fill="#072475" fill-rule="nonzero" d="M4185.15 4296.65l612.3 0 222.15 -578.85 933.85 0 219.06 578.85 636.26 0 -968.13 -2397.62 -673.88 0 -981.61 2397.62zm1012.41 -1048.08l294.13 -767.25 287.42 767.25 -581.55 0z"/>
    <path fill="#072475" fill-rule="nonzero" d="M8247.59 4296.72l547.28 0 0 -2517.58 -554.13 119.96 0 681.47c-136.85,-78.71 -294.23,-119.81 -461.89,-119.81 -526.69,0 -940.69,407.56 -940.69,928.24 0,520.59 407.05,931.75 923.69,931.75 177.84,0 345.49,-54.86 485.73,-157.63l0 133.61zm-865.37 -907.73c0,-260.37 205.26,-458.93 475.43,-458.93 150.43,0 287.31,51.3 383.1,140.49l0 633.56c-99.13,95.97 -229.21,143.88 -383.1,143.88 -266.78,0 -475.43,-198.71 -475.43,-459z"/>
    <polygon fill="#072475" fill-rule="nonzero" points="9231.22,4296.65 11132.81,4296.65 11132.81,3786.28 9819.47,3786.28 9819.47,3334.2 10677.99,3334.2 10677.99,2840.87 9819.47,2840.87 9819.47,2409.39 11119.31,2409.39 11119.31,1899.03 9231.22,1899.03 "/>
    <polygon fill="#072475" fill-rule="nonzero" points="11295.89,4296.72 11915,4296.72 12291.41,3779.47 12670.94,4296.72 13314.02,4296.72 12609.49,3371.88 13276.41,2484.79 12657.25,2484.79 12305.06,2971.09 11949.16,2484.79 11306.05,2484.79 11983.41,3378.83 "/>
   </g>
   <g>
    <polygon fill="#7298FE" points="-0,4225.58 1175.68,3049.97 0.08,1874.42 697.92,1176.55 1874.42,2353.05 3051.01,1176.55 3748.81,1874.42 2573.17,3049.97 3748.81,4225.58 3050.01,4924.36 1874.42,3748.72 698.82,4924.41 "/>
    <polygon fill="#2C5CDE" points="776.9,1097.4 1874.33,0 2971.73,1097.4 2383,1686.21 1874.33,1177.54 1365.67,1686.21 "/>
    <polygon fill="#2C5CDE" points="776.9,5002.43 1874.33,6099.87 2971.73,5002.43 2383,4413.74 1874.33,4922.33 1365.67,4413.74 "/>
   </g>
  </g>
 </g>
</svg>
