<svg width="154" height="40" viewBox="0 0 154 40" fill="none" xmlns="http://www.w3.org/2000/svg">
<path d="M54.8455 23.1555C53.6686 24.4207 52.4622 25.0386 51.1382 25.0386C48.6077 25.0386 46.6364 22.9496 46.6364 20.272C46.6364 17.5651 48.5489 15.476 51.0205 15.476C52.8447 15.476 54.0217 16.447 54.8161 17.3002L54.9632 17.4768L56.4933 15.8585L56.3461 15.7114C55.3163 14.6227 53.7863 13.3575 51.0499 13.3575C47.2837 13.3575 44.2236 16.4764 44.2236 20.3014C44.2236 24.1853 47.2248 27.2454 51.0499 27.2454C53.8157 27.2454 55.4046 25.8625 56.4638 24.6855L56.6109 24.509L55.0221 23.0378L54.8455 23.1555Z" fill="#394247"/>
<path d="M64.7318 13.3281C62.9958 13.3281 61.5835 14.0048 60.5537 15.3583V8.14954L58.1998 9.29705V26.8629H60.5537V19.3011C60.5537 17.0649 62.0543 15.5054 64.2022 15.5054C66.2912 15.5054 67.527 16.8883 67.527 19.1539V26.8923H69.8809V18.6832C69.8809 15.4172 67.8801 13.3281 64.7318 13.3281Z" fill="#394247"/>
<path d="M77.737 13.3869C75.7067 13.3869 74.2356 13.9165 72.9703 14.505L72.7938 14.5933L73.5294 16.5646L73.7354 16.4764C75.1183 15.8585 76.2658 15.5642 77.5604 15.5642C79.9143 15.5642 81.1501 16.6823 81.1501 18.8303V18.948C80.1791 18.6831 79.061 18.4772 77.4427 18.4772C73.8531 18.4772 71.7346 20.1249 71.7346 22.8907C71.7346 25.6859 74.265 27.1571 76.766 27.1571C78.9139 27.1571 80.2968 26.245 81.1795 25.3329V26.8629H83.504V18.8008C83.504 17.0943 83.0332 15.7996 82.0916 14.8581C81.0912 13.9165 79.5906 13.3869 77.737 13.3869ZM81.1501 20.9193V21.9492C81.1501 23.8028 79.4141 25.1857 77.0896 25.1857C75.6479 25.1857 74.0884 24.4502 74.0884 22.8319C74.0884 21.3313 75.4125 20.4191 77.6193 20.4191C79.1493 20.4191 80.3557 20.6839 81.1501 20.9193Z" fill="#394247"/>
<path d="M92.8019 13.3281C91.0659 13.3281 89.6535 14.0048 88.6237 15.3583V13.6223H86.2698V26.9217H88.6237V19.301C88.6237 17.0649 90.1243 15.5054 92.2722 15.5054C94.3613 15.5054 95.5971 16.8883 95.5971 19.1539V26.8923H97.951V18.6832C97.951 15.4171 95.9208 13.3281 92.8019 13.3281Z" fill="#394247"/>
<path d="M110.956 15.5054C109.691 14.0637 108.073 13.3281 106.16 13.3281C104.571 13.3281 102.982 13.946 101.835 15.0052C100.57 16.1821 99.8929 17.8004 99.8929 19.6247C99.8929 21.4195 100.57 23.0673 101.835 24.2442C102.982 25.3034 104.571 25.9213 106.16 25.9213C108.073 25.9213 109.662 25.1563 110.986 23.6263V24.509C110.986 27.2748 109.367 28.8637 106.543 28.8637C104.807 28.8637 103.188 28.3341 101.717 27.2748L101.511 27.1277L100.423 29.0108L100.599 29.1285C102.335 30.3349 104.365 30.9528 106.572 30.9528C108.72 30.9528 110.456 30.3349 111.633 29.1579C112.751 28.0104 113.34 26.451 113.34 24.4502V13.5929H110.986V15.5054H110.956ZM111.044 19.5953C111.044 22.214 108.749 23.7734 106.543 23.7734C104.159 23.7734 102.306 21.9492 102.306 19.6247C102.306 17.212 104.071 15.476 106.543 15.476C108.749 15.4466 111.044 17.006 111.044 19.5953Z" fill="#394247"/>
<path d="M121.902 13.3281C118.253 13.3281 115.517 16.2998 115.517 20.272C115.517 24.2442 118.371 27.216 122.167 27.216C124.403 27.216 126.08 26.451 127.639 24.715L127.786 24.5384L126.256 23.185L126.109 23.3321C124.962 24.5384 123.726 25.0681 122.225 25.0681C119.96 25.0681 118.283 23.538 117.959 21.243H128.11L128.14 21.037C128.169 20.7428 128.169 20.5368 128.169 20.3603C128.14 16.1527 125.639 13.3281 121.902 13.3281ZM125.727 19.2716H117.93C118.283 16.9766 119.872 15.3877 121.872 15.3877C124.314 15.3877 125.462 17.3297 125.727 19.2716Z" fill="#394247"/>
<path d="M130.346 26.8923H132.7V8.97339L130.346 10.1503V26.8923Z" fill="#394247"/>
<path d="M135.79 26.8923H138.144V8.14954L135.79 9.32648V26.8923Z" fill="#394247"/>
<path d="M150.678 13.5929L146.676 23.95L142.145 13.5929H139.556L145.499 26.6275C144.705 28.4518 144.028 28.8049 143.116 28.8049C142.351 28.8049 141.821 28.6872 141.204 28.3635L140.998 28.2458L140.174 30.1878L140.35 30.276C141.321 30.7468 142.145 30.9528 143.175 30.9528C145.264 30.9528 146.559 29.8641 147.647 27.1866L153.179 13.5929H150.678V13.5929Z" fill="#394247"/>
<path d="M37.7054 1.05885C37.5583 1.05885 34.2923 1.20596 30.2318 2.17694C24.7296 3.47158 20.6103 5.6195 18.0799 8.53243C17.5208 9.17975 16.9912 9.79764 16.5204 10.3861C15.52 10.6509 12.7542 11.4159 11.489 11.6513C10.7534 11.7984 10.1355 12.2104 9.69417 12.8283C8.78204 14.1523 7.19317 16.8593 7.13432 16.977L5.31006 20.0959L8.63492 18.6541C10.0767 18.0068 12.1069 17.5655 12.6954 17.9185C12.7248 17.948 12.7542 17.948 12.7836 18.1245C12.7836 19.0661 13.019 19.9782 13.4604 20.8903C12.5483 21.5965 12.0481 22.7146 12.1069 23.8621V27.9226H16.1673C17.3149 27.9814 18.4035 27.4518 19.1391 26.5691C20.0513 27.0104 20.9634 27.2164 21.9049 27.2458C22.0521 27.2752 22.0815 27.3047 22.0815 27.3341C22.4346 27.9226 21.9932 29.9528 21.3459 31.3945L19.9041 34.69L23.023 32.8657C23.1407 32.8069 25.8477 31.218 27.1718 30.3059C27.7897 29.8939 28.2016 29.2466 28.3487 28.511C28.6135 27.2458 29.3491 24.48 29.6139 23.4796C30.2024 23.0088 30.8203 22.4792 31.4676 21.9201C38.2939 15.8883 38.9118 2.82426 38.9412 2.26521L39 1L37.7054 1.05885ZM13.2544 15.6235C12.4894 15.3881 11.6067 15.4175 10.7534 15.5647C11.0771 15.035 11.4007 14.5348 11.6655 14.1523C11.7244 14.0346 11.8421 13.9758 11.9892 13.9464C12.5777 13.8287 13.4898 13.5933 14.4019 13.3873C13.8723 14.1818 13.5192 14.9173 13.2544 15.6235ZM17.256 25.0685C17.0206 25.3921 16.6087 25.5687 16.2262 25.5392H15.8437L18.2858 21.7142L14.4608 24.1858V23.7738C14.4314 23.3619 14.6079 22.9794 14.9316 22.744L19.6099 19.0366C19.8453 18.8307 20.169 18.6836 20.4632 18.6247L21.699 18.3305L21.4047 19.5663C21.3165 19.8899 21.1988 20.1842 20.9928 20.4195L17.256 25.0685ZM26.0242 28.0402C25.9948 28.1579 25.936 28.2756 25.8183 28.3639C25.4358 28.6287 24.9356 28.9524 24.4059 29.276C24.5531 28.4228 24.5825 27.54 24.3471 26.775C25.0533 26.5102 25.7889 26.1571 26.5833 25.6569C26.3773 26.5396 26.1419 27.4223 26.0242 28.0402ZM29.9081 20.1547C25.8477 23.7444 23.6115 24.8037 21.9932 24.8625C21.9638 24.8625 21.9638 24.8625 21.9344 24.8625C21.4342 24.8625 21.0222 24.7742 20.6103 24.6271L22.7876 21.8613C23.1996 21.3317 23.4938 20.7432 23.6704 20.0959L24.8473 15.1527L19.9041 16.3297C19.2568 16.4768 18.6389 16.771 18.1387 17.183L15.3729 19.3603C15.2258 18.9484 15.1375 18.5364 15.1375 18.0362C15.1375 18.0068 15.1375 18.0068 15.1375 17.9774C15.1669 16.3885 16.2556 14.1229 19.8453 10.0625C24.1706 5.14872 33.1153 3.82466 36.4696 3.501C36.1459 6.88471 34.8219 15.8295 29.9081 20.1547Z" fill="#10D078"/>
<path d="M11.6223 33.7359C10.1217 34.0302 8.59168 34.1184 7.06165 34.1479C6.17895 34.1479 5.29624 34.1184 4.38411 34.0302C4.73719 33.4417 5.06085 32.8532 5.35509 32.2353C5.91413 30.9701 6.32606 29.7049 6.64972 28.4103C6.94396 27.1745 7.29704 25.9681 7.73839 24.7617C8.15032 23.5554 8.6211 22.349 9.15072 21.1426C8.67995 21.6134 8.26802 22.1136 7.88551 22.6432C7.50301 23.1729 7.1205 23.7319 6.76742 24.291C6.09067 25.4091 5.5022 26.6448 5.002 27.8512C4.53123 29.0282 4.03103 30.2051 3.44256 31.2643C2.85408 32.3236 2.17734 33.2946 1.35348 34.2361L0 35.825L2.08907 36.1192C3.73679 36.3546 5.41393 36.4723 7.09108 36.4135C7.94436 36.384 8.76822 36.3252 9.6215 36.1781C10.4454 36.0604 11.2986 35.8544 12.0931 35.619C13.7114 35.1483 15.2708 34.3832 16.6537 33.4123C17.3305 32.9121 17.9778 32.353 18.5074 31.7057C19.037 31.0584 19.5372 30.3816 19.8609 29.6166C18.7428 30.7936 17.3893 31.6468 16.0064 32.3236C14.5941 33.0003 13.1229 33.4417 11.6223 33.7359Z" fill="#10D078"/>
<path d="M29.0549 15.0645C30.1141 15.0645 31.1734 14.6525 31.9972 13.8581C33.6155 12.2398 33.6155 9.62111 31.9972 8.00281C31.2028 7.20838 30.173 6.79645 29.0549 6.79645C27.9368 6.79645 26.907 7.2378 26.1125 8.00281C24.4942 9.62111 24.4942 12.2398 26.1125 13.8581C26.907 14.6525 27.9662 15.0645 29.0549 15.0645ZM27.7602 9.65053C28.1133 9.29745 28.5547 9.12091 29.0255 9.12091C29.4962 9.12091 29.967 9.29745 30.2907 9.65053C30.9968 10.3567 30.9968 11.4748 30.2907 12.181C29.5845 12.8871 28.4664 12.8871 27.7602 12.181C27.0835 11.5042 27.0835 10.3567 27.7602 9.65053Z" fill="#10D078"/>
</svg>
