<svg xmlns="http://www.w3.org/2000/svg" width="16.742" height="19.232" viewBox="0 0 16.742 19.232"><defs></defs><g class="a" transform="translate(-452.707 -502.483)"><g class="b"><path class="d" d="M456.767,508.819a1.221,1.221,0,0,1,.288-.235,1.2,1.2,0,0,1,.534-.1q3.7-.09,7.4.036a.745.745,0,0,1,.359.073.788.788,0,0,1,.236.266c1.01,1.52,2.672,2.507,3.712,4.006a.56.56,0,0,1,.136.361.553.553,0,0,1-.113.246,14.4,14.4,0,0,1-2.407,2.356c-2.042,1.821-3.64,4.1-5.717,5.882a76.577,76.577,0,0,0-7.437-7.051,3.316,3.316,0,0,1-.984-1.13.8.8,0,0,1,.252-.947c.772-.812,1.573-1.6,2.364-2.391Z"/><path class="e" d="M 460.6728515625 509.4514770507812 C 459.6570739746094 509.4514770507812 458.627685546875 509.4639892578125 457.6110229492188 509.48876953125 C 457.5874328613281 509.4893188476562 457.5450134277344 509.490234375 457.5082092285156 509.4921264648438 C 457.4967956542969 509.50341796875 457.4851989746094 509.5149536132812 457.4751586914062 509.5250244140625 L 456.1024169921875 510.90185546875 C 455.9018249511719 511.1032104492188 455.7005920410156 511.303955078125 455.4993286132812 511.5047607421875 C 454.9249572753906 512.0778198242188 454.3311157226562 512.6702880859375 453.7670593261719 513.2630615234375 C 453.9118347167969 513.4800415039062 454.1657104492188 513.6998291015625 454.39990234375 513.8938598632812 C 456.803955078125 515.8851928710938 459.1069641113281 518.0411376953125 461.2567749023438 520.312255859375 C 462.0056762695312 519.5953369140625 462.7048034667969 518.81494140625 463.4348449707031 518.0000610351562 C 464.3164978027344 517.0159301757812 465.2281799316406 515.998291015625 466.2499694824219 515.0870361328125 C 466.4476013183594 514.91064453125 466.64892578125 514.738525390625 466.8436584472656 514.5720825195312 C 467.3794860839844 514.1140747070312 467.8902282714844 513.6774291992188 468.2909851074219 513.1857299804688 C 467.8702697753906 512.6461181640625 467.3465270996094 512.15966796875 466.7963562011719 511.6486206054688 C 466.1075744628906 511.0087890625 465.3963317871094 510.34814453125 464.8245849609375 509.5199584960938 C 463.4461059570312 509.4744873046875 462.0500793457031 509.4514770507812 460.6728515625 509.4514770507812 M 460.6728515625 508.4514770507812 C 462.1131896972656 508.4514770507812 463.5535278320312 508.4760131835938 464.9930114746094 508.5250244140625 C 465.1159973144531 508.5289916992188 465.2449951171875 508.5350341796875 465.3519897460938 508.5980224609375 C 465.4549865722656 508.657958984375 465.5220031738281 508.7640380859375 465.5880126953125 508.864013671875 C 466.5979919433594 510.384033203125 468.260009765625 511.3709716796875 469.2999877929688 512.8699951171875 C 469.375 512.97802734375 469.4500122070312 513.0999755859375 469.4360046386719 513.2310180664062 C 469.4259948730469 513.322021484375 469.375 513.4019775390625 469.322998046875 513.4769897460938 C 468.6809997558594 514.4019775390625 467.7560119628906 515.0830078125 466.9159851074219 515.8330078125 C 464.8739929199219 517.6539916992188 463.2760009765625 519.9340209960938 461.1990051269531 521.7150268554688 C 458.8810119628906 519.2020263671875 456.3949890136719 516.844970703125 453.7619934082031 514.6640014648438 C 453.3829956054688 514.3499755859375 452.9809875488281 513.9940185546875 452.7780151367188 513.5339965820312 C 452.6090087890625 513.1500244140625 452.760986328125 512.8699951171875 453.0299987792969 512.5869750976562 C 453.802001953125 511.7750244140625 454.6029968261719 510.989990234375 455.3940124511719 510.196044921875 L 456.7669982910156 508.8189697265625 C 456.8550109863281 508.73095703125 456.9450073242188 508.6409912109375 457.0549926757812 508.583984375 C 457.2170104980469 508.5 457.406005859375 508.4930419921875 457.5889892578125 508.489013671875 C 458.6165161132812 508.4639892578125 459.6447448730469 508.4514770507812 460.6728515625 508.4514770507812 Z"/></g><path class="c" d="M453.242,513.169l3.8-.146h11.906"/><path class="c" d="M459.714,509a13.492,13.492,0,0,1-2.514,4.046,50.255,50.255,0,0,1,3.9,7.557"/><path class="c" d="M462.823,509a13.516,13.516,0,0,0,2.515,4.046,50.072,50.072,0,0,0-3.9,7.557"/><path class="c" d="M455.138,504.189a22.458,22.458,0,0,1,1.738,2.29"/><path class="c" d="M461.408,502.994l.063,2.885"/><path class="c" d="M467.745,504.1l-2.042,2.5"/></g></svg>