<svg xmlns="http://www.w3.org/2000/svg" width="17.539" height="15.054" viewBox="0 0 17.539 15.054"><defs></defs><g class="a" transform="translate(-429.623 -507.04)"><path class="b" d="M431.107,518.81l2.87.2a.774.774,0,0,0,.351-.029.348.348,0,0,0,.178-.219c.384-1.009.536-5.1.29-5.188a1.772,1.772,0,0,0-.577-.063l-2.446,0C431.251,513.514,431.007,518.2,431.107,518.81Z" transform="translate(-0.95 2.448)"/><path class="b" d="M436.7,510.46a16.632,16.632,0,0,1,3.407-.06.456.456,0,0,1,.178.04.232.232,0,0,1,.105.182,12.762,12.762,0,0,1-.107,3.472c-.176,1.881-.089,3.773-.354,5.649a.322.322,0,0,1-.073.193.732.732,0,0,1-.537.107l-1.617-.092c-.269-.015-.539-.025-.807-.045a.752.752,0,0,1-.4-.114.313.313,0,0,1-.1-.3c.018-.193.049-.386.074-.579.049-.39.1-.779.141-1.169.089-.775.165-1.55.217-2.328s.08-1.561.069-2.341a20.547,20.547,0,0,0-.158-2.336C436.729,510.648,436.716,510.554,436.7,510.46Z" transform="translate(0 1.532)"/><path class="b" d="M441.91,521.593q1.776.013,3.546-.135c.325-4.606.041-9.227.206-13.839,0-.028-1.8-.07-1.964-.072l-.5,0a2.6,2.6,0,0,0-.433.009.307.307,0,0,0-.259.315c-.026.25-.011.506-.015.757-.005.277-.009.555-.015.832q-.015.842-.038,1.681t-.051,1.673q-.029.837-.063,1.673t-.077,1.68q-.04.836-.089,1.671t-.1,1.671q-.054.84-.114,1.679Z" transform="translate(1)"/></g></svg>