<svg xmlns="http://www.w3.org/2000/svg" width="24.7" height="24.7" viewBox="0 0 24.7 24.7"><defs></defs><g transform="translate(-94.65 -22.65)"><path class="a" d="M24.445,18.315a1,1,0,0,1,0,1.41L20.7,23.46a.987.987,0,0,1-1.41,0l-3.74-3.735a1,1,0,1,1,1.415-1.41L19,20.34V12a4,4,0,0,1,4-4h5a4,4,0,0,1,4,4V28a4,4,0,0,1-4,4H12a4,4,0,0,1-4-4V12a4,4,0,0,1,4-4h4a1,1,0,0,1,0,2H12a2,2,0,0,0-2,2V28a2,2,0,0,0,2,2H28a2,2,0,0,0,2-2V12a2,2,0,0,0-2-2H23a2,2,0,0,0-2,2v8.34l2.03-2.025A.993.993,0,0,1,24.445,18.315Z" transform="translate(87 15)"/></g></svg>