<svg xmlns="http://www.w3.org/2000/svg" xmlns:xlink="http://www.w3.org/1999/xlink" width="1752.999" height="931.537" viewBox="0 0 1752.999 931.537">
  <defs>
    <linearGradient id="linear-gradient" x1="1.2" y1="0.5" x2="-0.2" y2="0.5" gradientUnits="objectBoundingBox">
      <stop offset="0" stop-color="#8ce1fe"/>
      <stop offset="0.549" stop-color="#6bc2ff"/>
      <stop offset="1" stop-color="#0f50bf"/>
    </linearGradient>
    <linearGradient id="linear-gradient-2" x1="1" y1="0.5" x2="0" y2="0.5" gradientUnits="objectBoundingBox">
      <stop offset="0" stop-color="#51a9ff"/>
      <stop offset="0.522" stop-color="#307ddf"/>
      <stop offset="1" stop-color="#0f50bf"/>
    </linearGradient>
  </defs>
  <g id="Layer_x0020_1" transform="translate(-3076.28 -3467.17)">
    <path id="Path_3061" data-name="Path 3061" d="M8953.01,6557.793H9024l25.779-67.118h108.277l25.381,67.118h73.771l-112.242-278h-78.133Zm117.4-121.527,34.107-88.96,33.316,88.96Z" transform="translate(-5182.214 -2480.223)" fill="#073075"/>
    <path id="_1" data-name="1" d="M11719.325,6454.083h63.459v-291.9l-64.252,13.9v79.032a106.555,106.555,0,0,0-53.545-13.9c-61.078,0-109.068,47.261-109.068,107.625s47.2,108.025,107.088,108.025a94.532,94.532,0,0,0,56.318-18.269Zm-100.344-105.245c0-30.182,23.8-53.216,55.131-53.216,17.449,0,33.314,5.956,44.42,16.283v73.472c-11.5,11.121-26.572,16.68-44.42,16.68C11643.177,6402.057,11618.981,6379.021,11618.981,6348.838Z" transform="translate(-7477.51 -2376.513)" fill="#073075"/>
    <path id="_2" data-name="2" d="M13903.8,6557.793h220.514v-59.176h-152.3v-52.423h99.543v-57.188h-99.543v-50.041h150.715V6279.79H13903.8Z" transform="translate(-9547.916 -2480.223)" fill="#073075"/>
    <path id="_3" data-name="3" d="M15929.4,7064.531h71.785l43.631-59.97,44.021,59.97h74.572L16081.7,6957.3l77.338-102.86h-71.785l-40.855,56.394-41.242-56.394H15930.6l78.529,103.654Z" transform="translate(-11334.131 -2986.961)" fill="#073075"/>
    <path id="Path_3062" data-name="Path 3062" d="M3076.28,5453.082l179.535-179.535-179.528-179.528,106.569-106.568,179.662,179.669,179.676-179.669,106.566,106.568-179.534,179.537,179.529,179.526-106.7,106.7-179.528-179.527-179.535,179.534Z" transform="translate(0 -1340.613)" fill-rule="evenodd" fill="url(#linear-gradient)"/>
    <path id="Path_3063" data-name="Path 3063" d="M4080.31,3634.756,4247.9,3467.17l167.585,167.586-89.909,89.914-77.676-77.677-77.678,77.677Z" transform="translate(-885.373)" fill-rule="evenodd" fill="url(#linear-gradient-2)"/>
    <path id="Path_3064" data-name="Path 3064" d="M4080.31,9260.54,4247.9,9428.129l167.585-167.589-89.909-89.91-77.676,77.676-77.678-77.676Z" transform="translate(-885.373 -5029.422)" fill-rule="evenodd" fill="url(#linear-gradient-2)"/>
  </g>
</svg>
